<?xml version="1.0" encoding="UTF-8"?>
<svg xmlns="http://www.w3.org/2000/svg" width="224.801" height="42.52" xml:space="preserve">
  <path fill="#F29400" d="M215.931 13.041c.039.389-.312.848-1.082 1.377-.685.471-1.153.694-1.378.683a1.714 1.714 0 0 1-.166-.106.675.675 0 0 0-.445-.106c-.1.106-.167.294-.2.576-.561.212-1.011.366-1.337.472l.027-.2c.001-.024.05-.153.159-.377.113-.271.191-.448.225-.553.573-1.519.868-2.331.874-2.414a.854.854 0 0 0-.037-.412c-.068-.176-.169-.259-.315-.259.053 0 .358-.153 1.087-.118.464.024.95.118 1.484.271.235.071.477.212.716.436.287.259.416.505.388.73m-3.877-1.095c-.071.071-.166.082-.268.023a.442.442 0 0 1 .146-.2c.067 0 .106.012.13.047l-.008.13zm5.68 1.577c.029-.224.017-.436-.064-.612-.058-.117-.213-.365-.48-.73a2.426 2.426 0 0 0-1.188-.918c-.286-.105-.744-.211-1.363-.306a2.71 2.71 0 0 1-.391-.118l-2.38-.034a4.862 4.862 0 0 0-1.084.081c-.593.119-.914.33-.95.648-.032.271.098.518.389.717.064.048.283.154.657.318a33.208 33.208 0 0 1-.853 2.119c-.149.401-.262.694-.33.896-.084.258-.151.458-.174.587-.242.225-.37.343-.371.366-.003.047.117.235.114.283-.126.471-.25.907-.372 1.318a7.732 7.732 0 0 0-.213.954c-.015.212-.028.4-.025.553.089.047.138.118.145.201h.146c.015-.012.163-.224.445-.636.177-.259.332-.377.462-.341.217-.224.364-.448.447-.683.116-.317.167-.482.181-.495.076-.141.128-.129.437-.164.338-.071.595-.131.785-.189a2.63 2.63 0 0 0 .465-.176c.152-.083.274-.118.34-.106.066 0 .102.059.134.177.233 1.047.49 1.753.769 2.142.025.035.108.164.252.4.108.177.167.271.194.271.042-.012.042-.023.083-.035.062.059.137.129.199.2.137.129.279.2.425.2.065.012.163-.047.264-.165.101-.106.16-.188.178-.247.004-.059-.052-.212-.182-.459a5.448 5.448 0 0 1-.243-.506c-.269-.741-.612-1.518-.517-2.318a.496.496 0 0 1 .224-.353l.91-.459c.65-.353 1.181-.706 1.59-1.047.58-.486.889-.921.945-1.334m-10.261.566c-.023.317-.237.718-.656 1.188-.405.459-.801.801-1.188 1a.586.586 0 0 0-.104.153c-.014 0-.064-.024-.131-.024-.026 0-.246.094-.646.283-.398.177-.604.27-.631.27-.053 0-.025-.034-.077-.034-.054 0-.404.07-.749-.154-.164-.117-.25-.223-.242-.329.014-.212.223-.907.638-2.083.217-.624.448-1.26.664-1.884.038-.153.04-.388-.002-.729.083-.035.217-.047.39-.047.706 0 1.331.2 1.874.613.618.458.91 1.059.86 1.777m1.658.258c.017-.248.015-.4-.021-.47a3.102 3.102 0 0 1-.123-.331c-.212-.964-.84-1.683-1.899-2.154-.762-.329-1.72-.517-2.903-.553-.066 0-.3-.082-.353-.082-.533 0-.994.118-1.383.353-.639.188-.966.318-.971.389-.264.165-.166.271.283.329l.761-.046c-.003.247-.017.435-.026.565-.001.023-.054.2-.17.518-.118.364-.202.611-.236.718-.447 1.636-.697 2.542-.751 2.742-.37 1.495-.584 2.648-.642 3.473-.021.294.022.447.115.447h.386a.906.906 0 0 1 .269-.223c.033-.106.052-.177.069-.236a.852.852 0 0 0 .342-.318c.078-.164.127-.294.16-.376.017-.048.018-.259.075-.306.126-.095.251-.353.4-.777.184-.53.313-.871.419-1.048.136.142.362.154.449.236a.67.67 0 0 1-.039.365c.073.082.214.165.408.258.218.118.384.224.498.307a.442.442 0 0 0 .262.071c.533 0 .908-.047 1.127-.142 2.227-1.001 3.392-2.238 3.494-3.709"></path>
  <path fill="#E2003D" d="M190.053 25.269a33.168 33.168 0 0 0-.736 2.085l-.695 2.453c-.327 1.226-.572 2.125-.776 2.739-2.168 2.535-3.721 3.638-4.743 3.27-.981-.368-1.022-1.757-.164-4.21 1.348-2.985 3.638-5.273 5.232-6.296.532-.287 1.021-.409 1.472-.287l.41.246zm5.397-.899c.042-.653-.164-1.104-.613-1.308-.123-.041-.572-.122-1.39-.287-1.962 0-2.003.451-2.331.777-.45-.367-1.717-1.144-2.044-1.144-2.208 0-4.211.818-5.968 2.493-3.148 3.025-4.823 6.5-5.11 10.425 0 2.249 1.553 4.17 3.884 4.17 1.103 0 2.043-.245 2.902-.777 1.022-.654 1.88-1.513 3.229-2.983.081.49.245.899.49 1.266.287.655.613 1.104 1.063 1.35.408.45.981.899 1.676 1.267 1.104.45 1.553.367 2.536.245.98-.041 1.349-1.021-.409-1.226-.94-.777-.982-1.636-.982-2.902 0-.695.082-1.8.286-3.23l1.105-3.966c.613-1.799 1.185-3.189 1.676-4.17m-18.396 12.182c-.286 0-.409-.123-.409-.368.245-.286.368-.491.368-.695-.164.204-.655.613-1.513 1.186-1.022.694-1.716 1.021-2.085 1.021-.49 0-.735-.572-.735-1.758 0-1.227.531-3.352 1.635-6.418 1.144-3.188 1.717-5.151 1.758-5.846.041-.286.409-1.021.409-1.226 0-.286-.164-.694-.164-.736-.041 0-.205.123-.491.123-.859 0-1.512-.409-1.676-.409s-1.104.246-1.431.205a9.93 9.93 0 0 1-.573.613c-2.29 4.864-3.434 8.871-3.434 12.06 0 .655.491 1.84 1.431 3.557 1.103 1.921 2.125 2.902 2.984 2.902.123 0 .165-.041.165-.123 0-.123.081-.163.205-.163.204 0 0 .163.286.163.122 0 .45-.204.98-.571.532-.369.859-.613.981-.655a1.597 1.597 0 0 1-.122-.572c0-.531 1.104-1.472 1.431-2.29m3.066-24.691c.164-.573.246-.859.246-.818-1.146-.123-1.839-.205-2.044-.205-.654.124-1.348.736-2.084 1.84-.367.531-.94 1.512-1.758 2.902.083-.041.205 0 .368.082-.286.368-.45.531-.531.531l.082.491c.777-.041 1.676-.082 1.88.368l-.164.327c.042 0 .287-.163.572-.204.368-.041.858 0 1.553.123.123-.204.41-.573.941-1.185.368-.45.736-1.104 1.063-1.963.245-.858.409-1.471.49-1.921l-.614-.368zm-18.519 12.877c0 .082-.163.572-.49 1.512-.328.9-.45 1.636-.409 2.167.124 1.431.206 2.29.206 2.535 0 .409-.124.818-.369 1.267-.367 1.432-1.308 2.576-2.739 3.517-1.431.94-2.616 1.389-3.597 1.389-.49-.245-.736-.49-.736-.695.122-2.126.899-4.456 2.412-6.95 1.512-2.535 3.229-4.292 5.191-5.232h.531v.49zm8.381-11.896c0-.286-.614-1.35-.736-1.554-.123.041-.245 0-.449-.122l-.368-.409c-.327.287-.531.409-.612.409-.205 0-.288-.164-.491-.164-.614 0-1.021.205-1.267.572 0 .124-.246.776-.696 1.962 0 .204-.449 1.636-1.349 4.251-.858 2.575-1.389 4.006-1.513 4.251-1.511-.286-2.575-.409-3.187-.328a6.193 6.193 0 0 0-1.758.491c-.532.205-1.146.613-1.881 1.227-.695.573-1.717 1.717-3.066 3.434-.776 1.431-1.472 2.698-2.084 3.884-.695 1.758-1.063 3.434-1.186 4.946.041.777.124 1.268.327 1.472.246.859.818 1.594 1.676 2.167.777.53 1.554.817 2.33.817h.736c-.082-.287.082-.409.491-.45.613-.041 1.063-.123 1.308-.286 1.554-1.103 2.657-1.88 3.311-2.371.205.94.45 1.921.655 2.862.53 1.758.939 2.616 1.267 2.616.327 0 .653-.286.939-.858.368-.368.695-.654.981-.859.041-1.308.205-2.943.491-4.905.286-1.676.532-3.312.777-4.988.286-1.676.858-4.088 1.757-7.318l1.961-6.745c.123-.531.451-1.349.941-2.452.45-1.021.695-1.552.695-1.552m-24.201 11.814c-.286 1.186-1.309 2.779-2.985 4.864-1.594 1.963-2.616 2.985-3.065 3.066.614-1.921 1.186-3.352 1.717-4.333 1.021-1.758 2.453-3.188 4.333-4.292v.695zm3.761-1.553c0-.859-1.186-1.962-2.779-2.167-2.004-.286-4.211.327-6.541 1.922-1.759 1.348-3.025 3.065-3.884 5.191-.858 2.125-1.268 3.965-1.268 5.56 0 1.921.491 3.475 1.431 4.702.205.286.696.613 1.554 1.063 1.144.572 2.125.858 2.902.858.451 0 1.839-.369 4.128-1.145.329-.613.614-1.104.858-1.431-.449-.45-.776-.695-.98-.695-.123 0-.532.082-1.308.245-.736.164-1.145.246-1.268.246-2.002 0-2.983-.776-2.983-2.371 0-.205.164-.491.449-.777.409 0 .654.245.695.777 2.003-.205 4.006-1.799 6.091-4.784 1.922-2.82 2.903-5.192 2.903-7.194m-14.798 12.468c-.123 0-.245-.082-.449-.204-1.432 1.021-2.372 1.594-2.823 1.758-.653-.531-.98-1.921-.98-4.088 0-2.861.817-5.845 2.494-8.993a8.31 8.31 0 0 1-1.022-.45c-.449-.204-.776-.327-.939-.327-.368 0-.941.164-1.677.491-.817.368-1.349.735-1.635 1.144-.532 1.145-.858 2.044-1.022 2.657-2.167 3.067-3.802 5.315-4.987 6.746-.041-.531.204-2.044.777-4.578.613-2.576.899-3.884.899-3.966 0-1.921-1.021-2.861-3.025-2.861-.776 0-2.371 1.267-4.783 3.802l-3.679 4.047c-.124-.123-.124-.205-.081-.287 1.308-3.598 1.961-5.641 1.961-6.132 0-.204-.245-.449-.777-.736-.491-.327-.899-.49-1.185-.49-1.105 0-2.209.735-3.313 2.166-.205.695-.327 1.227-.286 1.635-.082.328-.572 1.921-1.512 4.743-.736 2.248-1.104 4.046-1.104 5.478 0 .532.083.899.246 1.063.45.369 1.063.777 1.922 1.186.775.408 1.266.612 1.471.612a.675.675 0 0 0 .49-.204.49.49 0 0 1 .204-.204c.369-.367.818-1.021 1.35-1.961.286-.655.613-1.309.94-1.963l2.576-5.027c.94-1.595 2.084-2.781 3.434-3.639v.981c-.205.818-.409 1.635-.614 2.412a18.433 18.433 0 0 0-.653 4.906c0 .899.245 1.676.695 2.371.532.858 1.267 1.267 2.249 1.267h.695c.286 0 1.021-.777 2.166-2.371 0-.49-.041-.859-.082-1.063.45-.408 1.022-1.267 1.717-2.616.613-1.185 1.186-1.88 1.676-2.166-.041 2.166.368 4.005 1.228 5.518.939 1.799 2.329 2.698 4.168 2.698h.859c.328 0 .818-.368 1.432-1.063.654-.736.981-1.308.981-1.676v-.616zm-30.17.981c-.286 0-.408-.123-.408-.368.245-.286.367-.491.367-.695-.163.204-.653.613-1.512 1.186-1.022.694-1.717 1.021-2.085 1.021-.49 0-.736-.572-.736-1.758 0-1.227.532-3.352 1.635-6.418 1.145-3.188 1.717-5.151 1.758-5.846.041-.286.409-1.021.409-1.226 0-.286-.164-.694-.164-.736-.041 0-.205.123-.49.123-.858 0-1.513-.409-1.676-.409-.164 0-1.104.246-1.432.205a9.991 9.991 0 0 1-.572.613c-2.289 4.864-3.434 8.871-3.434 12.06 0 .655.49 1.84 1.431 3.557 1.104 1.921 2.126 2.902 2.984 2.902.122 0 .163-.041.163-.123 0-.123.082-.163.204-.163.205 0 0 .163.287.163.123 0 .45-.204.981-.571.531-.369.858-.613.981-.655a1.6 1.6 0 0 1-.123-.572c.002-.531 1.106-1.472 1.432-2.29m3.067-24.691c.164-.573.245-.859.245-.818-1.145-.123-1.84-.205-2.044-.205-.654.124-1.349.736-2.085 1.84-.367.531-.939 1.512-1.757 2.902.082-.041.205 0 .368.082-.286.368-.449.531-.531.531l.082.491c.776-.041 1.676-.082 1.88.368l-.164.327c.041 0 .287-.163.573-.204.368-.041.858 0 1.554.123.122-.204.409-.573.94-1.185.368-.45.736-1.104 1.063-1.963.244-.858.408-1.471.49-1.921l-.614-.368zM96.563 35.163c.041-.204-.042-.369-.246-.573-.899.614-1.799 1.268-2.739 1.921-1.431.982-2.535 1.431-3.23 1.391-.286 0-.491-.327-.654-.94-.123-.491-.205-.899-.164-1.226.082-1.472.409-3.23.94-5.315l1.35-5.273c-.9-.94-1.922-1.43-3.026-1.513-.776-.041-2.289 1.186-4.538 3.639a370.508 370.508 0 0 0-3.883 4.333c0-.94.206-2.167.654-3.68.45-1.512.695-2.493.736-2.943.041-.94-.613-2.208-1.717-2.249-.45-.041-.94.206-1.513.736.122.246.205.41.164.532-.368.98-.981 2.779-1.799 5.436-.94 3.026-1.43 4.865-1.472 5.52-.041.449.164 1.185.614 2.207.613 1.268 1.267 1.962 2.043 2.003.613.042 1.595-.9 2.943-2.821.695-1.104 1.391-2.248 2.085-3.352.858-1.349 1.593-2.248 2.206-2.78-.041 2.495.042 4.292.286 5.315.451 2.208 1.473 3.883 3.148 4.987.532.164 1.268.286 2.29.369a6.044 6.044 0 0 0 2.167-.941c-.204.287.45-.531 2.004-2.452.901-1.391 1.351-2.168 1.351-2.331m-21.953.408c-.122 0-.245-.082-.449-.204-1.432 1.021-2.372 1.594-2.822 1.758-.653-.531-.981-1.921-.981-4.088 0-2.861.818-5.845 2.495-8.993a8.33 8.33 0 0 1-1.021-.45c-.451-.204-.777-.327-.941-.327-.369 0-.94.164-1.676.491-.817.368-1.349.735-1.635 1.144-.532 1.145-.858 2.044-1.022 2.657-2.167 3.067-3.802 5.315-4.987 6.746-.041-.531.204-2.044.777-4.578.614-2.576.9-3.884.9-3.966 0-1.921-1.022-2.861-3.026-2.861-.775 0-2.37 1.267-4.782 3.802l-3.679 4.047c-.124-.123-.124-.205-.083-.287 1.309-3.598 1.963-5.641 1.963-6.132 0-.204-.246-.449-.777-.736-.491-.327-.9-.49-1.186-.49-1.104 0-2.208.735-3.311 2.166-.205.695-.327 1.227-.287 1.635-.082.328-.572 1.921-1.512 4.743-.735 2.248-1.104 4.046-1.104 5.478 0 .532.081.899.245 1.063.45.369 1.063.777 1.921 1.186.777.408 1.267.612 1.472.612a.676.676 0 0 0 .491-.204.49.49 0 0 1 .204-.204c.369-.367.818-1.021 1.35-1.961.286-.655.614-1.309.94-1.963l2.576-5.027c.939-1.595 2.084-2.781 3.433-3.639v.981c-.203.818-.408 1.635-.613 2.412a18.394 18.394 0 0 0-.654 4.906c0 .899.247 1.676.695 2.371.531.858 1.268 1.267 2.249 1.267h.694c.286 0 1.022-.777 2.166-2.371 0-.49-.041-.859-.081-1.063.45-.408 1.021-1.267 1.717-2.616.613-1.185 1.186-1.88 1.676-2.166-.041 2.166.368 4.005 1.227 5.518.94 1.799 2.33 2.698 4.169 2.698h.859c.328 0 .817-.368 1.431-1.063.654-.736.981-1.308.981-1.676v-.616zM37.124 31.36c-.123.695-.532 1.799-1.268 3.229-1.022 1.921-1.961 2.82-2.82 2.78-.817-.286-1.186-1.267-1.063-2.943.041-1.063.448-2.535 1.266-4.456 1.023-2.33 2.167-4.047 3.434-5.191.532.327.777 2.084.655 5.314-.041.532-.122.94-.204 1.267m13.818-9.811c0-.163-.083-.326-.205-.49-1.104-.572-2.493-.9-4.129-.94-1.431-.041-3.147.205-5.069.818s-2.82.899-2.657.94c-.041 0-.244-.164-.695-.531-.449-.369-.777-.572-.981-.572-1.309-.041-2.617.653-3.925 2.167-1.145 1.389-2.167 3.31-3.106 5.722-.817 2.494-1.186 4.211-1.105 5.151.124 1.595.696 3.025 1.8 4.374 1.227 1.513 2.74 2.33 4.538 2.371 1.39.041 2.739-1.145 4.088-3.557 1.104-1.961 1.717-3.678 1.921-5.191.122-1.021.041-2.208-.286-3.557-.328-1.349-.491-2.004-.491-1.921.041-.695.858-1.554 2.494-2.658 1.349-.899 2.29-1.43 2.821-1.594 1.102-.287 2.737-.491 4.987-.532"></path>
  <path fill="#B5B7B8" d="M10.516 29.468c2.533.031 4.466.271 5.799.722.506.17.832.356 1.024.571.359.383.236.011.449.195.083.29.141.534.125.641.116.078.3.14.576.232.002.489.086.779.253.947-.469.104-.613.42-3.372.419-1.703-.163-3.472.015-5.129-.131-3.747.083-6.566-.021-8.748.178.021-.031.223-.075.328-.226.084-.122-.189-1.039-.085-1.19 1.143.235 1.795.194 1.985-.08.084-.121.101-.228.076-.274l-.598-.202c1.178-.801 1.9-1.27 2.189-1.36 1.068-.313 2.801-.44 5.128-.442m4.833-7.294c2.395.165 4.226.573 5.441 1.176.128.12.295.61.498 1.423-.24.256-.577.565-1.062.93-.444.115-1.236.241-2.326.378-1.319.021-2.712.02-4.231-.002a52.073 52.073 0 0 0-2.774-.082 36.238 36.238 0 0 0-5.336-.11 27.546 27.546 0 0 0-1.278-.004c-1.342.046-2.462.06-3.381.117.041-.249.126-.649.306-1.201-.3-.041-.718.098-1.206.364.096-.103.243-.877.362-1.006.648-.693 2.025-1.187 4.105-1.457.614-.072 1.128-.136 1.566-.193h.012c1.465-.175 5.199-.484 8.9-.352.135.007.276.011.404.019M224.39 3.479c-38.584-.238-66.692-.271-86.373-.08-19.886.375-39.721.706-59.364 1.09-35.525.57-56.854.651-63.795.298-4.807-.224-8.421-.842-10.499-1.932-2.075-.923-2.491-1.664-1.325-2.21L4.4.74c.043-.265.114-.47.114-.47s.161-.325.627-.262c.331.045 3.981.755 12.905 1.138 14.546.148 41.407.047 81.856-.476C149.904.022 210.518 1.723 221.7 2.357c2.78.307 3.732.673 2.69 1.122"></path>
</svg>
