<?xml version="1.0" encoding="UTF-8"?>
<!-- Generator: Adobe Illustrator 16.0.3, SVG Export Plug-In . SVG Version: 6.00 Build 0)  -->
<svg xmlns="http://www.w3.org/2000/svg" xmlns:xlink="http://www.w3.org/1999/xlink" version="1.1" id="Vrstva_1" x="0px" y="0px" width="117.25px" height="116.957px" viewBox="0 0 117.25 116.957" xml:space="preserve">
<g>
	<line fill="none" stroke="#E1003C" stroke-width="2.5" stroke-miterlimit="10" x1="60.848" y1="81.039" x2="50.717" y2="81.039"></line>
	<polyline fill="none" stroke="#E1003C" stroke-width="2.5" stroke-miterlimit="10" points="39.015,81.039 6.396,81.039    6.396,13.42 74.016,13.42 74.016,59.167  "></polyline>
	<polyline fill="none" stroke="#E1003C" stroke-width="2.5" stroke-miterlimit="10" points="49.848,67.494 19.941,67.494    19.941,55.743  "></polyline>
	<polyline fill="none" stroke="#E1003C" stroke-width="2.5" stroke-miterlimit="10" points="19.941,44.198 19.941,26.965    60.471,26.965 60.471,52.669  "></polyline>
	<line fill="none" stroke="#E1003C" stroke-width="2.5" stroke-miterlimit="10" x1="41.94" y1="13.635" x2="41.94" y2="25.989"></line>
	<polyline fill="none" stroke="#E1003C" stroke-width="2.5" stroke-miterlimit="10" points="33.164,54.435 33.164,42.244    47.142,42.244 47.142,67.275  "></polyline>
	<line fill="none" stroke="#E1003C" stroke-width="2.5" stroke-miterlimit="10" x1="27.636" y1="67.764" x2="27.636" y2="81.581"></line>
	<path fill="none" stroke="#E1003C" stroke-width="2.5" stroke-linecap="round" stroke-linejoin="round" stroke-miterlimit="10" d="   M91.867,105.448c-0.889-1.204-2.703-1.777-3.973-1.702c-2.861,0.184-7.008-0.125-10.427-2.635   c-5.731-4.204-8.92-5.758-15.393-6.094c-1.218-0.063-2.15-0.629-2.565-1.545c-0.4-0.881-0.22-1.938,0.485-2.836   c1.903-2.43,6.834-3.16,13.176-1.953c0.033,0.008,0.063-0.008,0.08-0.033c0.017-0.026,0.017-0.063-0.004-0.086L56.566,65.857   c-0.771-1.047-1.162-2.225-1.104-3.309c0.063-1.154,0.619-2.148,1.607-2.877c2.267-1.66,4.674-0.51,6.055,1.367l13.17,17.925   c0.021,0.022,0.045,0.031,0.063,0.031c0.08-0.04,0.086-0.087,0.063-0.122l-4.065-5.537c-0.681-0.923-0.957-2.057-0.781-3.189   c0.172-1.129,0.773-2.127,1.699-2.811c0.926-0.681,2.061-0.96,3.192-0.787c1.134,0.176,2.132,0.779,2.813,1.703   c0,0,2.607,3.551,2.688,3.654c0.02,0.029,0.047,0.035,0.064,0.035c0.078-0.041,0.086-0.088,0.061-0.123   c0,0-0.527-0.719-0.531-0.729c-0.647-0.881-0.93-2.015-0.756-3.146c0.174-1.135,0.779-2.133,1.703-2.812   c0.922-0.678,2.057-0.957,3.188-0.786c1.14,0.176,2.14,0.778,2.814,1.704c0,0,2.443,3.326,2.547,3.468   c0.025,0.037,0.074,0.043,0.107,0.021c0.029-0.021,0.037-0.081,0.018-0.109c-0.692-0.938-0.973-2.096-0.785-3.252   c0.185-1.123,0.785-2.1,1.701-2.75c2.418-1.717,5.394,0.082,6.732,1.906l4.305,5.859c1.691,2.304,3.014,6.313,4.18,9.854   c1.039,3.158,1.935,5.873,2.951,7.261l2.236,3.045c0.02,0.022,0.063,0.028,0.063,0.028"></path>
</g>
</svg>
