<?xml version="1.0" encoding="UTF-8"?>
<!-- Generator: Adobe Illustrator 16.0.3, SVG Export Plug-In . SVG Version: 6.00 Build 0)  -->
<svg xmlns="http://www.w3.org/2000/svg" xmlns:xlink="http://www.w3.org/1999/xlink" version="1.1" id="Vrstva_1" x="0px" y="0px" width="117.25px" height="116.958px" viewBox="0 0 117.25 116.958" xml:space="preserve">
<g>
	<path fill="none" stroke="#E1003C" stroke-width="2.5" stroke-linecap="round" stroke-linejoin="round" stroke-miterlimit="10" d="   M23.14,10.834h70.366c6.539,0,11.838,5.299,11.838,11.837v43.531c0,8.715-7.066,15.784-15.783,15.784H54.709l-16.574,22.099   c-2.273,3.027-7.103,1.424-7.103-2.369V81.987h-7.893c-6.537,0-11.836-5.3-11.836-11.838V22.671   C11.304,16.133,16.603,10.834,23.14,10.834z"></path>
	<path fill="none" stroke="#E1003C" stroke-width="2.5" stroke-linecap="round" stroke-linejoin="round" stroke-miterlimit="10" d="   M39.824,55.001c14,0,29,12.667,29,12.667s2-6.666,2-22c0-15.333-2-22-2-22s-15,12.667-29,12.667"></path>
	<path fill="none" stroke="#E1003C" stroke-width="2.5" stroke-linecap="round" stroke-linejoin="round" stroke-miterlimit="10" d="   M39.793,36.352c-5.146,0-9.318,4.17-9.318,9.316s4.172,9.316,9.318,9.316c2.625,0,2.91-4.852,2.856-9.604   C42.597,40.821,42.313,36.352,39.793,36.352z"></path>
	<path fill="none" stroke="#E1003C" stroke-width="2.5" stroke-linecap="round" stroke-linejoin="round" stroke-miterlimit="10" d="   M70.74,50.91c2.223-0.706,3.834-2.785,3.834-5.241s-1.611-4.535-3.834-5.241"></path>
	<path fill="none" stroke="#E1003C" stroke-width="2.5" stroke-linecap="round" stroke-linejoin="round" stroke-miterlimit="10" d="   M74.297,55.861c4.027-1.374,6.947-5.417,6.947-10.192s-2.92-8.82-6.947-10.192"></path>
	<path fill="none" stroke="#E1003C" stroke-width="2.5" stroke-linecap="round" stroke-linejoin="round" stroke-miterlimit="10" d="   M77.77,60.252c5.441-1.967,9.388-7.751,9.388-14.584s-3.943-12.619-9.388-14.583"></path>
	<path fill="none" stroke="#E1003C" stroke-width="2.5" stroke-linecap="round" stroke-linejoin="round" stroke-miterlimit="10" d="   M46.658,40.918c0,0,8.667-1.083,15.5-6.333"></path>
	<path fill="none" stroke="#E1003C" stroke-width="2.5" stroke-linecap="round" stroke-linejoin="round" stroke-miterlimit="10" d="   M42.23,55.122l-4.014,10.533c-0.614,1.612-2.421,2.424-4.034,1.809l0,0c-1.612-0.612-2.421-2.42-1.807-4.031l3.541-9.292"></path>
	<path fill="none" stroke="#E1003C" stroke-width="2.5" stroke-linecap="round" stroke-linejoin="round" stroke-miterlimit="10" d="   M42.126,46.619"></path>
</g>
</svg>
