<?xml version="1.0" encoding="UTF-8"?>
<!-- Generator: Adobe Illustrator 16.0.3, SVG Export Plug-In . SVG Version: 6.00 Build 0)  -->
<svg xmlns="http://www.w3.org/2000/svg" xmlns:xlink="http://www.w3.org/1999/xlink" version="1.1" id="Vrstva_1" x="0px" y="0px" width="117.25px" height="116.958px" viewBox="0 0 117.25 116.958" xml:space="preserve">
<g>
	<path fill="none" stroke="#E1003C" stroke-width="2.5" stroke-linejoin="round" stroke-miterlimit="10" d="M93.85,53.483h-3.097   c-7.701,0-21.06-10.816-21.06-10.816"></path>
	<path fill="none" stroke="#E1003C" stroke-width="2.5" stroke-linejoin="round" stroke-miterlimit="10" d="M19.507,88.442   c0,0-9.375,4.189-14.798-3.828c3.073-5.115,16.679-28.667,16.679-28.667l26.322-18.43l9.909,2.179"></path>
	<polyline fill="none" stroke="#E1003C" stroke-width="2.5" stroke-linejoin="round" stroke-miterlimit="10" points="12.278,89.424    7.055,105.092 28.168,94.536  "></polyline>
	<path fill="none" stroke="#E1003C" stroke-width="2.5" stroke-linejoin="round" stroke-miterlimit="10" d="M41.2,74.375   l48.995-54.528c2.013-2.251,1.664-5.746-0.754-7.557l0,0c-2.104-1.579-5.061-1.321-6.855,0.604L24.702,75.032"></path>
	<path fill="none" stroke="#E1003C" stroke-width="2.5" stroke-linejoin="round" stroke-miterlimit="10" d="M56.317,58.176v8.003   c0,4.632-3.786,8.417-8.417,8.417H27.532c-3.958,0-10.24,3.091-10.24,8.211c0,5.119,4.233,8.211,8.192,8.211h10.24h12.284   c5.316,4.691,11.783,7.033,18.43,7.033h8.018c2.83,0,5.645-0.393,8.359-1.172l0,0c2.722-0.776,5.535-1.17,8.362-1.17h2.671"></path>
	<path fill="none" stroke="#E1003C" stroke-width="2.5" stroke-linejoin="round" stroke-miterlimit="10" d="M39.896,93.364v0.467   c0,2.826,3.171,4.223,7.129,4.223h-0.109c2.952,0,5.424-0.774,6.491-2.344"></path>
	<path fill="none" stroke="#E1003C" stroke-width="2.5" stroke-linejoin="round" stroke-miterlimit="10" d="M28.168,93.364v0.467   c0,2.826,2.432,4.223,5.825,4.223h-0.119c3.393,0,6.022-1.396,6.022-4.223v-0.467"></path>
	
		<rect x="93.85" y="48.79" fill="none" stroke="#E1003C" stroke-width="2.5" stroke-linejoin="round" stroke-miterlimit="10" width="18.771" height="49.263"></rect>
	
		<line fill="none" stroke="#E1003C" stroke-width="2.5" stroke-linejoin="round" stroke-miterlimit="10" x1="82.666" y1="28.224" x2="75.23" y2="20.788"></line>
	
		<line fill="none" stroke="#E1003C" stroke-width="2.5" stroke-linejoin="round" stroke-miterlimit="10" x1="103.232" y1="83.98" x2="103.232" y2="91.018"></line>
</g>
</svg>
