<?xml version="1.0" encoding="UTF-8"?>
<!-- Generator: Adobe Illustrator 16.0.3, SVG Export Plug-In . SVG Version: 6.00 Build 0)  -->
<svg xmlns="http://www.w3.org/2000/svg" xmlns:xlink="http://www.w3.org/1999/xlink" version="1.1" id="Vrstva_1" x="0px" y="0px" width="117.25px" height="116.958px" viewBox="0 0 117.25 116.958" xml:space="preserve">
<g>
	<path fill="none" stroke="#E1003C" stroke-width="2.5" stroke-linejoin="round" stroke-miterlimit="10" d="M19.875,39.555   c0-15.05,11.305-27.25,25.25-27.25s25.25,12.2,25.25,27.25c0,18.751-19.166,39.5-25.25,39.5   C39.041,79.055,19.875,59.472,19.875,39.555z"></path>
	<path fill="none" stroke="#E1003C" stroke-width="2.5" stroke-linejoin="round" stroke-miterlimit="10" d="M27.708,46.055   c-0.833-14.582,6.5-23.082,14.667-26.749"></path>
	<polygon fill="none" stroke="#E1003C" stroke-width="2.5" stroke-linejoin="round" stroke-miterlimit="10" points="39.599,90.29    45.041,79.672 53.875,89.637  "></polygon>
	<path fill="none" stroke="#E1003C" stroke-width="2.5" stroke-linejoin="round" stroke-miterlimit="10" d="M45.375,89.971   c0,0-2.167,4.166-0.334,8.166c1.194,2.606,5.668,4.334,3.834,9.5"></path>
	<path fill="none" stroke="#E1003C" stroke-width="2.5" stroke-linejoin="round" stroke-miterlimit="10" d="M74.189,27.029   c0.857-0.118,1.732-0.18,2.625-0.18c11.354,0,20.561,9.934,20.561,22.188c0,15.268-15.604,32.161-20.561,32.161   c-2.373,0-7.193-3.661-11.57-9.262"></path>
	<polygon fill="none" stroke="#E1003C" stroke-width="2.5" stroke-linejoin="round" stroke-miterlimit="10" points="72.316,90.344    76.748,81.703 83.939,89.817  "></polygon>
	<path fill="none" stroke="#E1003C" stroke-width="2.5" stroke-linejoin="round" stroke-miterlimit="10" d="M77.02,90.086   c0,0-1.766,3.394-0.271,6.65c0.973,2.123,4.613,3.525,3.121,7.73"></path>
</g>
</svg>
