<?xml version="1.0" encoding="UTF-8"?>
<!-- Generator: Adobe Illustrator 16.0.3, SVG Export Plug-In . SVG Version: 6.00 Build 0)  -->
<svg xmlns="http://www.w3.org/2000/svg" xmlns:xlink="http://www.w3.org/1999/xlink" version="1.1" id="Vrstva_1" x="0px" y="0px" width="117.25px" height="116.957px" viewBox="0 0 117.25 116.957" xml:space="preserve">
<g>
	<path fill="none" stroke="#E1003C" stroke-width="2.5" stroke-miterlimit="10" d="M60.843,94.309c4.896,0,9.575-0.896,13.9-2.52   c1.935,1.418,9.541,6.169,24.021,5.523c-5.951-5.444-8.277-11.057-9.063-15.521c6.642-7.076,10.716-16.592,10.716-27.063   c0-21.857-17.718-39.575-39.574-39.575C40.05,15.16,22.999,31.199,21.393,51.58"></path>
	<path fill="none" stroke="#E1003C" stroke-width="2.5" stroke-miterlimit="10" d="M23.816,94.249   c-4.254-4.534-6.865-10.629-6.865-17.338c0-14.002,11.351-25.354,25.353-25.354c14.003,0,25.354,11.352,25.354,25.354   s-11.354,25.353-25.355,25.353c-3.135,0-6.134-0.572-8.903-1.611c-1.238,0.908-6.112,3.951-15.391,3.539   C21.823,100.702,23.313,97.105,23.816,94.249z"></path>
	<g>
		<circle fill="#E1003C" cx="32.401" cy="85.376" r="3.099"></circle>
		<circle fill="#E1003C" cx="42.257" cy="85.376" r="3.099"></circle>
		<circle fill="#E1003C" cx="52.114" cy="85.376" r="3.099"></circle>
	</g>
</g>
</svg>
