<?xml version="1.0" encoding="UTF-8"?>
<!-- Generator: Adobe Illustrator 16.0.3, SVG Export Plug-In . SVG Version: 6.00 Build 0)  -->
<svg xmlns="http://www.w3.org/2000/svg" xmlns:xlink="http://www.w3.org/1999/xlink" version="1.1" id="Vrstva_1" x="0px" y="0px" width="117.25px" height="116.957px" viewBox="0 0 117.25 116.957" xml:space="preserve">
<g>
	<path fill="none" stroke="#E1003C" stroke-width="2.5" stroke-linejoin="round" stroke-miterlimit="10" d="M87.963,55.773   c0,0-8.25-0.473-14.378-9.429c-6.128-8.956-10.091-10.672-13.041-16.025c-2.75-4.989-2.967-5.502-4.086-13.67   c-0.668-4.872-7.542-10.685-14.141-0.157c-3.613,5.026,0.154,16.025,1.886,18.383c0,0,5.186,3.772,1.729,14.299   c-3.457,10.527,2.673,13.983,2.673,13.983"></path>
	<path fill="none" stroke="#E1003C" stroke-width="2.5" stroke-linejoin="round" stroke-miterlimit="10" d="M40.353,46.66   c0,0-18.195,0.296-27.693,7.896c-5.895,4.713-3.417,14.26,12.374,11.313c8.134-1.518,10.842-8.129,6.717-12.254"></path>
	<path fill="none" stroke="#E1003C" stroke-width="2.5" stroke-linejoin="round" stroke-miterlimit="10" d="M16.666,66.221   c0,0-6.953,1.18-5.893,7.778c0.9,5.615,6.011,7.66,15.907,5.892c9.899-1.768,13.906-7.188,9.548-13.08"></path>
	<path fill="none" stroke="#E1003C" stroke-width="2.5" stroke-linejoin="round" stroke-miterlimit="10" d="M18.729,80.48   c0,0-6.481,3.771-3.653,9.015c2.522,4.683,8.217,3.935,14.495,3.42c7.188-0.592,10.075-6.658,7.129-10.665"></path>
	<path fill="none" stroke="#E1003C" stroke-width="2.5" stroke-linejoin="round" stroke-miterlimit="10" d="M24.031,93.855   c0,0-4.242,1.648-3.535,6.127c0.707,4.479,6.162,7.291,14.495,4.716c6.479-2.005,2.415-9.134,2.415-9.134"></path>
	<path fill="none" stroke="#E1003C" stroke-width="2.5" stroke-linejoin="round" stroke-miterlimit="10" d="M42.886,103.105   c0,0,19.092,1.179,30.051-4.479c10.961-5.656,18.974-5.126,18.974-5.126"></path>
	<path fill="none" stroke="#E1003C" stroke-width="2.5" stroke-linejoin="round" stroke-miterlimit="10" d="M108.533,93.29   c0.146,1.554-0.994,2.935-2.551,3.08l-11.028,1.041c-1.556,0.146-2.935-0.996-3.081-2.552l-3.895-40.736   c-0.146-1.555,0.992-2.935,2.549-3.081l11.027-1.04c1.557-0.146,2.937,0.996,3.082,2.55L108.533,93.29z"></path>
	<g>
		<g>
			
				<line fill="none" stroke="#E1003C" stroke-width="2.5" stroke-linejoin="round" stroke-miterlimit="10" x1="79.428" y1="14.079" x2="76.73" y2="16.778"></line>
			
				<line fill="none" stroke="#E1003C" stroke-width="2.5" stroke-linejoin="round" stroke-miterlimit="10" x1="71.63" y1="21.878" x2="68.93" y2="24.578"></line>
		</g>
		<g>
			
				<line fill="none" stroke="#E1003C" stroke-width="2.5" stroke-linejoin="round" stroke-miterlimit="10" x1="79.428" y1="24.579" x2="76.73" y2="21.879"></line>
			
				<line fill="none" stroke="#E1003C" stroke-width="2.5" stroke-linejoin="round" stroke-miterlimit="10" x1="71.629" y1="16.778" x2="68.93" y2="14.079"></line>
		</g>
	</g>
	<g>
		<g>
			
				<line fill="none" stroke="#E1003C" stroke-width="2.5" stroke-linejoin="round" stroke-miterlimit="10" x1="89.396" y1="36.079" x2="87.605" y2="37.87"></line>
			
				<line fill="none" stroke="#E1003C" stroke-width="2.5" stroke-linejoin="round" stroke-miterlimit="10" x1="84.221" y1="41.254" x2="82.43" y2="43.045"></line>
		</g>
		<g>
			
				<line fill="none" stroke="#E1003C" stroke-width="2.5" stroke-linejoin="round" stroke-miterlimit="10" x1="89.396" y1="43.045" x2="87.605" y2="41.254"></line>
			
				<line fill="none" stroke="#E1003C" stroke-width="2.5" stroke-linejoin="round" stroke-miterlimit="10" x1="84.221" y1="37.87" x2="82.43" y2="36.079"></line>
		</g>
	</g>
	<g>
		<g>
			
				<line fill="none" stroke="#E1003C" stroke-width="2.5" stroke-linejoin="round" stroke-miterlimit="10" x1="26.229" y1="32.579" x2="24.438" y2="34.37"></line>
			
				<line fill="none" stroke="#E1003C" stroke-width="2.5" stroke-linejoin="round" stroke-miterlimit="10" x1="21.054" y1="37.754" x2="19.263" y2="39.545"></line>
		</g>
		<g>
			
				<line fill="none" stroke="#E1003C" stroke-width="2.5" stroke-linejoin="round" stroke-miterlimit="10" x1="26.229" y1="39.545" x2="24.438" y2="37.754"></line>
			
				<line fill="none" stroke="#E1003C" stroke-width="2.5" stroke-linejoin="round" stroke-miterlimit="10" x1="21.053" y1="34.37" x2="19.262" y2="32.579"></line>
		</g>
	</g>
</g>
</svg>
