<?xml version="1.0" encoding="UTF-8"?>
<!-- Generator: Adobe Illustrator 16.0.3, SVG Export Plug-In . SVG Version: 6.00 Build 0)  -->
<svg xmlns="http://www.w3.org/2000/svg" xmlns:xlink="http://www.w3.org/1999/xlink" version="1.1" id="Vrstva_1" x="0px" y="0px" width="117.25px" height="117.082px" viewBox="0 0 117.25 117.082" xml:space="preserve">
<g>
	<path fill="none" stroke="#E1003C" stroke-width="2.5" stroke-linejoin="round" stroke-miterlimit="10" d="M77.811,54.515V18.422   H19.325v77.055h34.752"></path>
	<path fill="none" stroke="#E1003C" stroke-width="2.5" stroke-linejoin="round" stroke-miterlimit="10" d="M28.026,48.25h40.972   V29.648H28.026V48.25z"></path>
	<g>
		<path fill="none" stroke="#E1003C" stroke-width="2" stroke-linejoin="round" stroke-miterlimit="10" d="M58.015,100.177    l32.625,7.85l10.345-42.983l-32.626-7.849L58.015,100.177z"></path>
		<g>
			<path fill="none" stroke="#E1003C" stroke-width="2" stroke-linejoin="round" stroke-miterlimit="10" d="M71.269,71.483     l20.623,4.963l1.78-7.389l-20.625-4.963L71.269,71.483z"></path>
			<g>
				<g>
					<path fill="none" stroke="#E1003C" stroke-width="2" stroke-linejoin="round" stroke-miterlimit="10" d="M69.211,80.034       l4.867,1.173l1.172-4.868l-4.867-1.172L69.211,80.034z"></path>
					<path fill="none" stroke="#E1003C" stroke-width="2" stroke-linejoin="round" stroke-miterlimit="10" d="M77.089,81.93       l4.868,1.174l1.173-4.869l-4.869-1.171L77.089,81.93z"></path>
					<path fill="none" stroke="#E1003C" stroke-width="2" stroke-linejoin="round" stroke-miterlimit="10" d="M84.967,83.827       l4.868,1.17l1.173-4.865l-4.867-1.175L84.967,83.827z"></path>
				</g>
				<g>
					<path fill="none" stroke="#E1003C" stroke-width="2" stroke-linejoin="round" stroke-miterlimit="10" d="M67.254,88.168       l4.868,1.17l1.171-4.867L68.427,83.3L67.254,88.168z"></path>
					<path fill="none" stroke="#E1003C" stroke-width="2" stroke-linejoin="round" stroke-miterlimit="10" d="M75.132,90.063       L80,91.235l1.171-4.868l-4.866-1.172L75.132,90.063z"></path>
					<path fill="none" stroke="#E1003C" stroke-width="2" stroke-linejoin="round" stroke-miterlimit="10" d="M83.01,91.958       l4.868,1.17l1.173-4.867l-4.869-1.171L83.01,91.958z"></path>
				</g>
				<g>
					<path fill="none" stroke="#E1003C" stroke-width="2" stroke-linejoin="round" stroke-miterlimit="10" d="M65.33,96.162       l4.867,1.173l1.172-4.87l-4.867-1.17L65.33,96.162z"></path>
					<path fill="none" stroke="#E1003C" stroke-width="2" stroke-linejoin="round" stroke-miterlimit="10" d="M73.208,98.056       l4.868,1.174l1.171-4.869l-4.866-1.171L73.208,98.056z"></path>
					<path fill="none" stroke="#E1003C" stroke-width="2" stroke-linejoin="round" stroke-miterlimit="10" d="M81.086,99.954       l4.869,1.173l1.171-4.87l-4.866-1.17L81.086,99.954z"></path>
				</g>
			</g>
		</g>
	</g>
	<path fill="none" stroke="#E1003C" stroke-width="2.5" stroke-linejoin="round" stroke-miterlimit="10" d="M84.762,53.604V11   H24.847"></path>
	
		<line fill="none" stroke="#E1003C" stroke-width="2.5" stroke-linejoin="round" stroke-miterlimit="10" x1="28.026" y1="60.893" x2="61.974" y2="60.893"></line>
	
		<line fill="none" stroke="#E1003C" stroke-width="2.5" stroke-linejoin="round" stroke-miterlimit="10" x1="28.026" y1="71" x2="42.155" y2="71"></line>
	
		<line fill="none" stroke="#E1003C" stroke-width="2.5" stroke-linejoin="round" stroke-miterlimit="10" x1="28.026" y1="81.104" x2="42.155" y2="81.104"></line>
	<path fill="none" stroke="#E1003C" stroke-width="2.5" stroke-linejoin="round" stroke-miterlimit="10" d="M56.274,87.094   c-3.099-1.417-5.251-4.544-5.251-8.177c0-4.962,4.024-8.986,8.987-8.986"></path>
</g>
</svg>
