<?xml version="1.0" encoding="UTF-8"?>
<!-- Generator: Adobe Illustrator 16.0.3, SVG Export Plug-In . SVG Version: 6.00 Build 0)  -->
<svg xmlns="http://www.w3.org/2000/svg" xmlns:xlink="http://www.w3.org/1999/xlink" version="1.1" id="Vrstva_1" x="0px" y="0px" width="117.25px" height="116.958px" viewBox="0 0 117.25 116.958" xml:space="preserve">
<g>
	<g>
		<path fill="none" stroke="#E1003C" stroke-width="2.5" stroke-linejoin="round" stroke-miterlimit="10" d="M38.606,94.874    c0,0-3.061,1.529-7.65,1.529s-7.648-1.529-7.648-1.529l-7.65,3.062c-1.928,0.896-3.773,3.272-4.59,4.59"></path>
		<path fill="none" stroke="#E1003C" stroke-width="2.5" stroke-linejoin="round" stroke-miterlimit="10" d="M35.546,90.284    c4.266-2.842,3.867-4.666,4.375-8.801c0.273-2.23,0.357-4.635-0.721-6.684c-0.986-1.877-2.795-3.174-4.775-3.844    c-1.082-0.363-2.271-0.563-3.469-0.563c-1.195,0-2.385,0.198-3.469,0.563c-1.979,0.67-3.789,1.967-4.775,3.844    c-1.078,2.049-0.994,4.451-0.721,6.684c0.508,4.135,0.113,5.959,4.375,8.801"></path>
		<path fill="none" stroke="#E1003C" stroke-width="2.5" stroke-linejoin="round" stroke-miterlimit="10" d="M78.389,102.524    c-0.814-1.316-2.664-3.695-4.59-4.59l-7.65-3.063c0,0-3.059,1.528-7.648,1.528c-4.589,0-7.65-1.528-7.65-1.528l-7.65,3.063    c-1.926,0.895-3.773,3.271-4.59,4.59"></path>
		<path fill="none" stroke="#E1003C" stroke-width="2.5" stroke-linejoin="round" stroke-miterlimit="10" d="M63.09,90.284    c4.26-2.842,3.865-4.666,4.373-8.801c0.271-2.23,0.354-4.635-0.721-6.684c-0.984-1.877-2.797-3.174-4.773-3.844    c-1.088-0.363-2.273-0.563-3.471-0.563c-1.196,0-2.386,0.198-3.47,0.563c-1.979,0.67-3.789,1.967-4.775,3.844    c-1.078,2.049-0.992,4.451-0.721,6.684c0.508,4.135,0.111,5.959,4.373,8.801"></path>
		<path fill="none" stroke="#E1003C" stroke-width="2.5" stroke-linejoin="round" stroke-miterlimit="10" d="M105.93,102.524    c-0.816-1.316-2.664-3.695-4.59-4.59l-7.648-3.063c0,0-3.063,1.528-7.648,1.528c-4.596,0-7.65-1.528-7.65-1.528"></path>
		<path fill="none" stroke="#E1003C" stroke-width="2.5" stroke-linejoin="round" stroke-miterlimit="10" d="M90.629,90.284    c4.264-2.842,3.867-4.666,4.375-8.801c0.271-2.23,0.355-4.635-0.719-6.684c-0.986-1.877-2.801-3.174-4.777-3.844    c-1.084-0.363-2.271-0.563-3.467-0.563c-1.199,0-2.389,0.198-3.473,0.563c-1.979,0.67-3.789,1.967-4.773,3.844    c-1.078,2.049-0.994,4.451-0.721,6.684c0.508,4.135,0.109,5.959,4.371,8.801"></path>
	</g>
	<path fill="none" stroke="#E1003C" stroke-width="2.5" stroke-linejoin="round" stroke-miterlimit="10" d="M14,77.311   c-2.762,0-5-2.238-5-5v-57c0-2.762,2.238-5,5-5h89c2.762,0,5,2.238,5,5v57c0,2.762-2.238,5-5,5"></path>
	<polygon fill="none" stroke="#E1003C" stroke-width="2.5" stroke-linejoin="round" stroke-miterlimit="10" points="48.271,32.001    68.729,43.811 48.271,55.622  "></polygon>
</g>
</svg>
